<svg xmlns="http://www.w3.org/2000/svg" width="180" height="48" viewBox="0 0 47.625 12.7"><path fill="#20a41e" d="M1.839 6.286c.112.762.306 1.601.943 2.102.661.551 1.688.52 2.355-.005.893-.597 1.451-1.638 2.489-2.027.708-.237 1.472.27 1.636 1.041.158.825-.25 1.679-.904 2.177-1.3 1.002-3.176 1.272-4.594.423-1.274-.737-2.112-2.23-1.925-3.711z"/><path fill="#e96c11" d="M7.678 2.948c-.716-.284-1.539-.535-2.292-.234-.807.297-1.294 1.202-1.173 2.041.071 1.072.693 2.076.511 3.17-.149.732-.97 1.14-1.719.897-.793-.275-1.329-1.056-1.434-1.872-.218-1.627.487-3.387 1.931-4.19 1.275-.734 2.987-.714 4.176.188z"/><g fill="#1e73cd"><path d="M6.346 2.197c-.518-.008-1.035.15-1.432.493-.585.528-.642 1.443-.083 1.938.856.705 2.036.667 3.001 1.142.394.158.726.455.941.82a1.43 1.43 0 0 1 .49.807 2.03 2.03 0 0 1-.08 1.035 4 4 0 0 0 .733-2.28c.026-1.652-1.145-3.143-2.664-3.767a2.45 2.45 0 0 0-.906-.188z"/><path d="M11.344 8.111v-3.64h1.637q.588 0 .863.333.275.328.275.887 0 .367-.18.633-.175.266-.498.384.085.073.132.158.053.085.106.226l.413 1.017h-.742l-.403-.978q-.053-.124-.117-.175-.064-.051-.212-.051h-.562v1.204zm.715-1.837h.736q.281 0 .44-.13.159-.136.159-.452 0-.305-.138-.447-.138-.141-.418-.141h-.779zm3.788 1.894q-.652 0-1.033-.345-.381-.35-.381-1.057 0-.639.318-1.012.323-.379.959-.379.583 0 .89.328.313.322.313.848v.486h-1.817q.058.322.275.441.222.119.625.119.201 0 .408-.04.212-.04.36-.102v.543q-.175.085-.408.124-.233.045-.509.045zm-.752-1.6h1.192v-.147q0-.232-.127-.362-.127-.136-.429-.136-.355 0-.498.153-.138.153-.138.492zm3.014 1.6q-.366 0-.535-.181-.164-.181-.164-.577V4.301h.715v3.047q0 .141.053.198.053.051.154.051.138 0 .249-.04v.526q-.201.085-.471.085zm2.135 0q-.705 0-1.033-.362-.328-.367-.328-1.034 0-.667.328-1.029.334-.367 1.033-.367.705 0 1.033.367.334.362.334 1.029 0 .667-.328 1.034-.328.362-1.038.362zm0-.65q.344 0 .493-.164.148-.17.148-.582 0-.413-.148-.577-.148-.17-.493-.17-.339 0-.487.17-.148.164-.148.577 0 .413.148.582.148.164.487.164zm2.924 1.588q-.281 0-.577-.04-.291-.04-.493-.113v-.571q.212.073.498.113.286.045.535.045.366 0 .53-.045.164-.04.164-.147 0-.09-.074-.124-.069-.034-.297-.034h-.683q-.673 0-.673-.531 0-.164.085-.3.085-.136.27-.215-.429-.232-.429-.78 0-.52.302-.752.302-.237.895-.237.122 0 .265.023.148.017.222.034h.943l-.016.48h-.397q.164.164.164.458 0 .413-.244.661-.244.243-.72.243-.085 0-.164-.006-.074-.011-.154-.023-.159.023-.27.079-.106.057-.106.153 0 .13.217.13h.71q.381 0 .588.187.207.181.207.531 0 .396-.334.588-.334.192-.964.192zm.058-2.261q.318 0 .44-.113.127-.119.127-.396 0-.277-.127-.401-.122-.124-.44-.124-.302 0-.434.124-.132.119-.132.401 0 .26.122.384.127.124.445.124zm1.902-1.905v-.599h.779v.599zm.058 3.171V5.997h-.376l.064-.565h1.028v2.679zm2.606.057q-.673 0-1.033-.356-.355-.356-.355-1.04 0-.707.381-1.051.387-.345 1.028-.345.265 0 .456.04.191.04.371.13v.548q-.132-.068-.307-.107-.175-.04-.376-.04-.403 0-.614.181-.212.175-.212.644 0 .43.191.627.196.198.63.198.185 0 .36-.04.18-.04.334-.119v.565q-.355.164-.853.164zm2.469-.057v-3.64h.715v3.052h1.679v.588zm3.576.057q-.238 0-.445-.09-.201-.096-.328-.277-.122-.187-.122-.463 0-.396.26-.633.265-.237.779-.237h.742v-.073q0-.249-.132-.35-.127-.102-.519-.102-.429 0-.826.141v-.537q.175-.073.424-.119.254-.051.551-.051.567 0 .874.249.313.243.313.786v1.701h-.62l-.037-.243q-.148.141-.366.22-.217.079-.546.079zm.196-.503q.238 0 .413-.085.175-.085.275-.215v-.424h-.726q-.418 0-.418.367 0 .356.456.356zm3.427.503q-.265 0-.461-.073-.196-.079-.36-.232l-.037.249h-.62v-3.81h.715v1.277q.154-.102.344-.153.191-.051.397-.051.54 0 .853.328.318.322.318 1.046 0 .723-.313 1.074-.307.345-.837.345zm-.201-.56q.344 0 .482-.215.143-.215.143-.644 0-.447-.154-.627-.148-.187-.477-.187-.164 0-.313.051-.143.051-.244.147v1.232q.106.119.249.181.148.062.313.062zm2.707.56q-.281 0-.535-.045-.254-.04-.408-.102v-.633q.185.079.418.124.233.04.429.04.265 0 .371-.034.111-.034.111-.153 0-.136-.17-.198-.164-.062-.493-.175-.344-.124-.53-.3-.185-.175-.185-.52 0-.384.26-.588.265-.209.848-.209.233 0 .44.04.207.034.35.085v.627q-.143-.073-.328-.107-.185-.04-.344-.04-.228 0-.366.034-.132.034-.132.147 0 .124.143.175.148.051.456.153.302.096.471.209.17.113.238.271.069.153.069.384 0 .814-1.112.814z" stroke="#1e73cd" stroke-width=".102" stroke-linejoin="round"/></g></svg>